<?xml version="1.0" encoding="utf-8"?>
<!-- Generator: Adobe Illustrator 16.0.0, SVG Export Plug-In . SVG Version: 6.00 Build 0)  -->
<!DOCTYPE svg PUBLIC "-//W3C//DTD SVG 1.1//EN" "http://www.w3.org/Graphics/SVG/1.1/DTD/svg11.dtd">
<svg version="1.1" id="レイヤー_1" xmlns="http://www.w3.org/2000/svg" xmlns:xlink="http://www.w3.org/1999/xlink" x="0px"
	 y="0px" width="800px" height="200px" viewBox="0 0 800 200" enable-background="new 0 0 800 200" xml:space="preserve">
<g>
	<path fill="#FFFFFF" d="M142.751,108.455h-17.67l17.1-36.481l-66.311,8.36l3.23,65.551h79.801v15.58H63.71l-3.8-79.23l-32.68,4.18
		v-15.77l31.92-3.99l-1.33-26.98h16.15l1.14,24.89l93.671-11.59L142.751,108.455z M156.431,45.754h-11.97l-3.8-22.23h11.97
		L156.431,45.754z M178.851,45.754h-12.16l-3.8-22.23h12.16L178.851,45.754z"/>
</g>
<g>
	<path fill="#FFFFFF" d="M370.683,152.155H229.321v-16.341h141.362V152.155z M355.103,67.224H244.901v-16.53h110.202V67.224z"/>
</g>
<g>
	<path fill="#FFFFFF" d="M435.4,151.775l13.87-56.431h16.721l-13.87,56.431H435.4z M563.842,66.654h-55.86v101.272h-16.15V66.654
		H437.11v-15.77h54.721v-26.98h16.15v26.98h55.86V66.654z M551.112,95.344l13.87,56.431h-16.721l-13.87-56.431H551.112z
		 M557.762,44.234c-7.79,0-13.87-5.89-13.87-13.49s6.08-13.68,13.87-13.68c7.601,0,13.681,6.08,13.681,13.68
		S565.362,44.234,557.762,44.234z M557.762,24.093c-3.609,0-6.84,3.04-6.84,6.65c0,3.61,3.23,6.65,6.84,6.65
		c3.61,0,6.65-3.04,6.65-6.65C564.412,27.133,561.372,24.093,557.762,24.093z"/>
</g>
<g>
	<path fill="#FFFFFF" d="M666.18,33.974h102.981L687.46,171.535h-18.24l19.95-33.44l-26.41-46.931h17.48l17.86,31.921l43.891-73.911
		H675.3l-23.75,39.71h-18.24L666.18,33.974z"/>
</g>
<g>
</g>
<g>
</g>
<g>
</g>
<g>
</g>
<g>
</g>
<g>
</g>
<g>
</g>
<g>
</g>
<g>
</g>
<g>
</g>
<g>
</g>
<g>
</g>
<g>
</g>
<g>
</g>
<g>
</g>
</svg>
